<svg xmlns="http://www.w3.org/2000/svg" width="417" height="137" viewBox="0 0 417 137" version="1.1"><path d="" stroke="none" fill="#7172a3" fill-rule="evenodd"/><path d="M 250.500 9.573 C 206.396 19.329, 200.981 59.336, 240.900 80.500 C 271.817 96.891, 251.647 117.219, 217 104.587 C 212.875 103.083, 208.794 101.629, 207.932 101.357 C 206.659 100.955, 205.936 102.901, 204.096 111.681 C 202.849 117.631, 201.616 123.422, 201.356 124.549 C 200.957 126.283, 201.701 126.848, 206.192 128.223 C 274.519 149.133, 322.380 91.821, 263.881 59.142 C 233.533 42.188, 249.050 23.762, 283.435 35.921 C 287.491 37.355, 289.581 37.677, 290.038 36.939 C 291.139 35.158, 295.298 13.965, 294.670 13.337 C 290.684 9.350, 262.402 6.941, 250.500 9.573 M 13.676 11.402 C 13.248 12.517, 14.529 13.287, 18.803 14.483 C 50.914 23.471, 47.681 18.621, 64 82.273 L 76.500 131.028 92.921 130.764 L 109.341 130.500 131.146 78.500 C 143.139 49.900, 154.514 22.788, 156.425 18.250 L 159.899 10 143.699 10.006 L 127.500 10.013 112.069 49.256 C 96.144 89.756, 95.054 92.402, 94.524 91.836 C 94.351 91.651, 91.205 75.525, 87.532 56 C 80.729 19.836, 79.695 16.347, 74.679 12.605 C 70.935 9.812, 14.712 8.703, 13.676 11.402 M 173.622 11.750 C 173.339 12.713, 167.652 39.150, 160.982 70.500 C 154.312 101.850, 148.633 128.287, 148.360 129.250 C 147.904 130.863, 149.081 131, 163.362 131 L 178.858 131 180.051 125.250 C 180.707 122.088, 186.506 94.862, 192.937 64.750 L 204.631 10 189.383 10 C 175.723 10, 174.081 10.182, 173.622 11.750 M 343.500 11.412 C 341.850 12.145, 339.524 13.815, 338.332 15.123 C 336.688 16.925, 289 128.586, 289 130.632 C 289 130.862, 296.262 130.926, 305.138 130.775 L 321.276 130.500 324.307 121.750 L 327.338 113 347.700 113 C 363.114 113, 368.158 113.304, 368.455 114.250 C 368.671 114.938, 369.588 118.987, 370.492 123.250 L 372.136 131 386.068 131 C 394.318 131, 400 130.608, 400 130.038 C 400 128.874, 376.158 14.234, 375.400 11.750 C 374.705 9.476, 348.482 9.198, 343.500 11.412 M 352.042 45.500 C 349.879 50.927, 337 86.810, 337 87.411 C 337 87.735, 342.899 88, 350.108 88 C 363.202 88, 363.216 87.998, 362.654 85.750 C 362.345 84.513, 360.266 74.725, 358.034 64 C 353.191 40.721, 353.530 41.769, 352.042 45.500" stroke="none" fill="#1c1c6c" fill-rule="evenodd"/></svg>